<svg width="151" height="148" viewBox="0 0 151 148" fill="none" xmlns="http://www.w3.org/2000/svg">
<g clip-path="url(#clip0_2_155)">
<path d="M75.2526 0.452264C75.2526 0.452264 119.381 -1.49611 142.771 41.9915H71.5015C71.5015 41.9915 58.0408 41.5563 46.5667 57.5697C43.2582 64.2765 39.729 71.2009 43.6993 84.8292C37.9645 75.3124 13.2488 33.1217 13.2488 33.1217C13.2488 33.1217 30.6812 2.18153 75.2526 0.450793V0.452264Z" fill="#E16B5A"/>
<path d="M140.474 110.862C140.474 110.862 120.125 149.305 70.0207 147.414C76.2025 136.926 105.665 86.9011 105.665 86.9011C105.665 86.9011 112.778 75.6873 104.378 57.9387C100.109 51.7745 87.1737 45.3133 73.1499 41.8694C84.4283 41.7592 142.629 41.8768 142.629 41.8768C142.629 41.8768 161.235 72.1537 140.474 110.864V110.862Z" fill="#FFD464"/>
<path d="M10.3461 111.155C10.3461 111.155 -13.4314 74.6506 13.2929 33.0496L48.9151 93.5785C48.9151 93.5785 55.2587 105.225 75.1365 106.966C82.7138 106.424 90.597 105.963 100.651 95.7798C95.1069 105.41 70.1927 147.484 70.1927 147.484C70.1927 147.484 34.1515 148.143 10.3447 111.155H10.3461Z" fill="#74B340"/>
<path d="M75.0732 107.873C93.8039 107.873 108.988 92.9573 108.988 74.558C108.988 56.1586 93.8039 41.243 75.0732 41.243C56.3425 41.243 41.1583 56.1586 41.1583 74.558C41.1583 92.9573 56.3425 107.873 75.0732 107.873Z" fill="white"/>
<path d="M75.0614 100.981C89.9167 100.981 101.959 89.1509 101.959 74.558C101.959 59.965 89.9167 48.1351 75.0614 48.1351C60.2062 48.1351 48.1636 59.965 48.1636 74.558C48.1636 89.1509 60.2062 100.981 75.0614 100.981Z" fill="#2995CC"/>
<path d="M75.0688 48.141C74.5336 48.141 74.0042 48.1616 73.4778 48.191C87.5913 48.9997 98.783 60.4973 98.783 74.5624C98.783 88.6318 87.5913 100.128 73.4763 100.938C74.0057 100.968 74.535 100.988 75.0688 100.988C89.922 100.988 101.967 89.1568 101.967 74.5638C101.967 59.9724 89.9235 48.141 75.0688 48.141Z" fill="#268CBF"/>
</g>
<defs>
<clipPath id="clip0_2_155">
<rect width="149.988" height="147.047" fill="white" transform="translate(0.599854 0.4375)"/>
</clipPath>
</defs>
</svg>
