<svg width="537" height="347" viewBox="0 0 537 347" fill="none" xmlns="http://www.w3.org/2000/svg">
<g clip-path="url(#clip0_2_96)">
<path d="M528.5 0.0625H8.5C4.08172 0.0625 0.5 3.64422 0.5 8.0625V338.062C0.5 342.481 4.08172 346.062 8.5 346.062H528.5C532.918 346.062 536.5 342.481 536.5 338.062V8.0625C536.5 3.64422 532.918 0.0625 528.5 0.0625Z" fill="#E8EAF6"/>
<path d="M104.97 157.26C113.807 157.26 120.97 150.096 120.97 141.26C120.97 132.423 113.807 125.26 104.97 125.26C96.1334 125.26 88.97 132.423 88.97 141.26C88.97 150.096 96.1334 157.26 104.97 157.26Z" fill="#F98E5D"/>
<path opacity="0.25" d="M457.97 115.26H375.97C374.313 115.26 372.97 116.603 372.97 118.26C372.97 119.916 374.313 121.26 375.97 121.26H457.97C459.627 121.26 460.97 119.916 460.97 118.26C460.97 116.603 459.627 115.26 457.97 115.26Z" fill="#242A45"/>
<path opacity="0.25" d="M457.97 135.26H375.97C374.313 135.26 372.97 136.603 372.97 138.26C372.97 139.916 374.313 141.26 375.97 141.26H457.97C459.627 141.26 460.97 139.916 460.97 138.26C460.97 136.603 459.627 135.26 457.97 135.26Z" fill="#242A45"/>
<path opacity="0.25" d="M457.97 155.26H375.97C374.313 155.26 372.97 156.603 372.97 158.26C372.97 159.916 374.313 161.26 375.97 161.26H457.97C459.627 161.26 460.97 159.916 460.97 158.26C460.97 156.603 459.627 155.26 457.97 155.26Z" fill="#242A45"/>
<path opacity="0.25" d="M457.97 175.26H375.97C374.313 175.26 372.97 176.603 372.97 178.26C372.97 179.916 374.313 181.26 375.97 181.26H457.97C459.627 181.26 460.97 179.916 460.97 178.26C460.97 176.603 459.627 175.26 457.97 175.26Z" fill="#242A45"/>
<path opacity="0.25" d="M457.97 209.26H375.97C374.313 209.26 372.97 210.603 372.97 212.26C372.97 213.916 374.313 215.26 375.97 215.26H457.97C459.627 215.26 460.97 213.916 460.97 212.26C460.97 210.603 459.627 209.26 457.97 209.26Z" fill="#242A45"/>
<path opacity="0.25" d="M457.97 229.26H375.97C374.313 229.26 372.97 230.603 372.97 232.26C372.97 233.916 374.313 235.26 375.97 235.26H457.97C459.627 235.26 460.97 233.916 460.97 232.26C460.97 230.603 459.627 229.26 457.97 229.26Z" fill="#242A45"/>
<path opacity="0.25" d="M457.97 249.26H375.97C374.313 249.26 372.97 250.603 372.97 252.26C372.97 253.916 374.313 255.26 375.97 255.26H457.97C459.627 255.26 460.97 253.916 460.97 252.26C460.97 250.603 459.627 249.26 457.97 249.26Z" fill="#242A45"/>
<path opacity="0.25" d="M196.97 145.26H138.97C137.313 145.26 135.97 146.603 135.97 148.26C135.97 149.916 137.313 151.26 138.97 151.26H196.97C198.627 151.26 199.97 149.916 199.97 148.26C199.97 146.603 198.627 145.26 196.97 145.26Z" fill="#242A45"/>
<path d="M104.97 213.26C113.807 213.26 120.97 206.096 120.97 197.26C120.97 188.423 113.807 181.26 104.97 181.26C96.1334 181.26 88.97 188.423 88.97 197.26C88.97 206.096 96.1334 213.26 104.97 213.26Z" fill="#6AC6D6"/>
<path opacity="0.5" d="M252.97 187.26H138.97C137.313 187.26 135.97 188.603 135.97 190.26C135.97 191.916 137.313 193.26 138.97 193.26H252.97C254.627 193.26 255.97 191.916 255.97 190.26C255.97 188.603 254.627 187.26 252.97 187.26Z" fill="#242A45"/>
<path opacity="0.25" d="M196.97 201.26H138.97C137.313 201.26 135.97 202.603 135.97 204.26C135.97 205.916 137.313 207.26 138.97 207.26H196.97C198.627 207.26 199.97 205.916 199.97 204.26C199.97 202.603 198.627 201.26 196.97 201.26Z" fill="#242A45"/>
<path d="M104.97 269.26C113.807 269.26 120.97 262.096 120.97 253.26C120.97 244.423 113.807 237.26 104.97 237.26C96.1334 237.26 88.97 244.423 88.97 253.26C88.97 262.096 96.1334 269.26 104.97 269.26Z" fill="#A47ED4"/>
<path opacity="0.5" d="M252.97 243.26H138.97C137.313 243.26 135.97 244.603 135.97 246.26C135.97 247.916 137.313 249.26 138.97 249.26H252.97C254.627 249.26 255.97 247.916 255.97 246.26C255.97 244.603 254.627 243.26 252.97 243.26Z" fill="#242A45"/>
<path opacity="0.25" d="M196.97 257.26H138.97C137.313 257.26 135.97 258.603 135.97 260.26C135.97 261.916 137.313 263.26 138.97 263.26H196.97C198.627 263.26 199.97 261.916 199.97 260.26C199.97 258.603 198.627 257.26 196.97 257.26Z" fill="#242A45"/>
<path d="M104.97 325.26C113.807 325.26 120.97 318.096 120.97 309.26C120.97 300.423 113.807 293.26 104.97 293.26C96.1334 293.26 88.97 300.423 88.97 309.26C88.97 318.096 96.1334 325.26 104.97 325.26Z" fill="#EC7878"/>
<path opacity="0.5" d="M252.97 299.26H138.97C137.313 299.26 135.97 300.603 135.97 302.26C135.97 303.916 137.313 305.26 138.97 305.26H252.97C254.627 305.26 255.97 303.916 255.97 302.26C255.97 300.603 254.627 299.26 252.97 299.26Z" fill="#242A45"/>
<path opacity="0.25" d="M196.97 313.26H138.97C137.313 313.26 135.97 314.603 135.97 316.26C135.97 317.916 137.313 319.26 138.97 319.26H196.97C198.627 319.26 199.97 317.916 199.97 316.26C199.97 314.603 198.627 313.26 196.97 313.26Z" fill="#242A45"/>
</g>
<defs>
<clipPath id="clip0_2_96">
<rect width="536" height="346" fill="white" transform="translate(0.5 0.0625)"/>
</clipPath>
</defs>
</svg>
