<svg width="636" height="452" viewBox="0 0 636 452" fill="none" xmlns="http://www.w3.org/2000/svg">
<g clip-path="url(#clip0_2_30)">
<g filter="url(#filter0_d_2_30)">
<g filter="url(#filter1_d_2_30)">
<path d="M572.587 9.64923H63.4128C49.5127 9.64923 38.2444 20.9175 38.2444 34.8176V357.166C38.2444 371.066 49.5127 382.334 63.4128 382.334H572.587C586.487 382.334 597.756 371.066 597.756 357.166V34.8176C597.756 20.9175 586.487 9.64923 572.587 9.64923Z" fill="black"/>
</g>
<path d="M572.587 9.64923H63.4128C49.5127 9.64923 38.2444 20.9175 38.2444 34.8176V357.166C38.2444 371.066 49.5127 382.334 63.4128 382.334H572.587C586.487 382.334 597.756 371.066 597.756 357.166V34.8176C597.756 20.9175 586.487 9.64923 572.587 9.64923Z" fill="#777777"/>
<path d="M571.842 11.5853H64.3808C51.0153 11.5853 40.1805 22.4201 40.1805 35.7856V357.035C40.1805 370.4 51.0153 381.235 64.3808 381.235H571.842C585.207 381.235 596.042 370.4 596.042 357.035V35.7856C596.042 22.4201 585.207 11.5853 571.842 11.5853Z" fill="url(#paint0_linear_2_30)"/>
<path opacity="0.1" d="M542.088 25.4307H95.3862C92.7131 25.4307 90.5461 27.5977 90.5461 30.2708V363.031C90.5461 365.704 92.7131 367.871 95.3862 367.871H542.088C544.761 367.871 546.928 365.704 546.928 363.031V30.2708C546.928 27.5977 544.761 25.4307 542.088 25.4307Z" fill="#2A2A2A"/>
<path d="M569.712 28.3347H66.3458C62.0689 28.3347 58.6017 31.8019 58.6017 36.0788V355.523C58.6017 359.8 62.0689 363.267 66.3458 363.267H569.712C573.989 363.267 577.456 359.8 577.456 355.523V36.0788C577.456 31.8019 573.989 28.3347 569.712 28.3347Z" fill="#E8EAF6"/>
<path d="M159.73 180.503C168.284 180.503 175.218 173.569 175.218 165.015C175.218 156.461 168.284 149.527 159.73 149.527C151.176 149.527 144.242 156.461 144.242 165.015C144.242 173.569 151.176 180.503 159.73 180.503Z" fill="#F98E5D"/>
<path opacity="0.25" d="M501.438 139.847H422.061C420.458 139.847 419.157 141.147 419.157 142.751C419.157 144.355 420.458 145.655 422.061 145.655H501.438C503.042 145.655 504.342 144.355 504.342 142.751C504.342 141.147 503.042 139.847 501.438 139.847Z" fill="#242A45"/>
<path opacity="0.25" d="M501.438 159.207H422.061C420.458 159.207 419.157 160.507 419.157 162.111C419.157 163.715 420.458 165.015 422.061 165.015H501.438C503.042 165.015 504.342 163.715 504.342 162.111C504.342 160.507 503.042 159.207 501.438 159.207Z" fill="#242A45"/>
<path opacity="0.25" d="M501.438 178.567H422.061C420.458 178.567 419.157 179.868 419.157 181.471C419.157 183.075 420.458 184.375 422.061 184.375H501.438C503.042 184.375 504.342 183.075 504.342 181.471C504.342 179.868 503.042 178.567 501.438 178.567Z" fill="#242A45"/>
<path opacity="0.25" d="M501.438 197.928H422.061C420.458 197.928 419.157 199.228 419.157 200.832C419.157 202.436 420.458 203.736 422.061 203.736H501.438C503.042 203.736 504.342 202.436 504.342 200.832C504.342 199.228 503.042 197.928 501.438 197.928Z" fill="#242A45"/>
<path opacity="0.25" d="M501.438 230.84H422.061C420.458 230.84 419.157 232.14 419.157 233.744C419.157 235.348 420.458 236.648 422.061 236.648H501.438C503.042 236.648 504.342 235.348 504.342 233.744C504.342 232.14 503.042 230.84 501.438 230.84Z" fill="#242A45"/>
<path opacity="0.25" d="M501.438 250.2H422.061C420.458 250.2 419.157 251.5 419.157 253.104C419.157 254.708 420.458 256.008 422.061 256.008H501.438C503.042 256.008 504.342 254.708 504.342 253.104C504.342 251.5 503.042 250.2 501.438 250.2Z" fill="#242A45"/>
<path opacity="0.25" d="M501.438 269.561H422.061C420.458 269.561 419.157 270.861 419.157 272.465C419.157 274.068 420.458 275.369 422.061 275.369H501.438C503.042 275.369 504.342 274.068 504.342 272.465C504.342 270.861 503.042 269.561 501.438 269.561Z" fill="#242A45"/>
<path opacity="0.25" d="M248.787 168.887H192.642C191.039 168.887 189.738 170.187 189.738 171.791C189.738 173.395 191.039 174.695 192.642 174.695H248.787C250.391 174.695 251.691 173.395 251.691 171.791C251.691 170.187 250.391 168.887 248.787 168.887Z" fill="#242A45"/>
<path d="M159.73 234.712C168.284 234.712 175.218 227.778 175.218 219.224C175.218 210.67 168.284 203.736 159.73 203.736C151.176 203.736 144.242 210.67 144.242 219.224C144.242 227.778 151.176 234.712 159.73 234.712Z" fill="#6AC6D6"/>
<path opacity="0.5" d="M302.996 209.544H192.642C191.039 209.544 189.738 210.844 189.738 212.448C189.738 214.052 191.039 215.352 192.642 215.352H302.996C304.6 215.352 305.9 214.052 305.9 212.448C305.9 210.844 304.6 209.544 302.996 209.544Z" fill="#242A45"/>
<path opacity="0.25" d="M248.787 223.096H192.642C191.039 223.096 189.738 224.396 189.738 226C189.738 227.604 191.039 228.904 192.642 228.904H248.787C250.391 228.904 251.691 227.604 251.691 226C251.691 224.396 250.391 223.096 248.787 223.096Z" fill="#242A45"/>
<path d="M159.73 288.921C168.284 288.921 175.218 281.986 175.218 273.433C175.218 264.879 168.284 257.944 159.73 257.944C151.176 257.944 144.242 264.879 144.242 273.433C144.242 281.986 151.176 288.921 159.73 288.921Z" fill="#A47ED4"/>
<path opacity="0.5" d="M302.996 263.753H192.642C191.039 263.753 189.738 265.053 189.738 266.657C189.738 268.26 191.039 269.561 192.642 269.561H302.996C304.6 269.561 305.9 268.26 305.9 266.657C305.9 265.053 304.6 263.753 302.996 263.753Z" fill="#242A45"/>
<path opacity="0.25" d="M248.787 277.305H192.642C191.039 277.305 189.738 278.605 189.738 280.209C189.738 281.813 191.039 283.113 192.642 283.113H248.787C250.391 283.113 251.691 281.813 251.691 280.209C251.691 278.605 250.391 277.305 248.787 277.305Z" fill="#242A45"/>
<path d="M159.73 343.129C168.284 343.129 175.218 336.195 175.218 327.641C175.218 319.087 168.284 312.153 159.73 312.153C151.176 312.153 144.242 319.087 144.242 327.641C144.242 336.195 151.176 343.129 159.73 343.129Z" fill="#EC7878"/>
<path opacity="0.5" d="M302.996 317.961H192.642C191.039 317.961 189.738 319.261 189.738 320.865C189.738 322.469 191.039 323.769 192.642 323.769H302.996C304.6 323.769 305.9 322.469 305.9 320.865C305.9 319.261 304.6 317.961 302.996 317.961Z" fill="#242A45"/>
<path opacity="0.25" d="M248.787 331.513H192.642C191.039 331.513 189.738 332.814 189.738 334.417C189.738 336.021 191.039 337.321 192.642 337.321H248.787C250.391 337.321 251.691 336.021 251.691 334.417C251.691 332.814 250.391 331.513 248.787 331.513Z" fill="#242A45"/>
</g>
</g>
<defs>
<filter id="filter0_d_2_30" x="34.3724" y="7.71321" width="567.255" height="380.429" filterUnits="userSpaceOnUse" color-interpolation-filters="sRGB">
<feFlood flood-opacity="0" result="BackgroundImageFix"/>
<feColorMatrix in="SourceAlpha" type="matrix" values="0 0 0 0 0 0 0 0 0 0 0 0 0 0 0 0 0 0 127 0" result="hardAlpha"/>
<feOffset dy="1.93602"/>
<feGaussianBlur stdDeviation="1.93602"/>
<feColorMatrix type="matrix" values="0 0 0 0 0 0 0 0 0 0 0 0 0 0 0 0 0 0 0.5 0"/>
<feBlend mode="normal" in2="BackgroundImageFix" result="effect1_dropShadow_2_30"/>
<feBlend mode="normal" in="SourceGraphic" in2="effect1_dropShadow_2_30" result="shape"/>
</filter>
<filter id="filter1_d_2_30" x="-0.476048" y="-0.0308914" width="636.952" height="450.126" filterUnits="userSpaceOnUse" color-interpolation-filters="sRGB">
<feFlood flood-opacity="0" result="BackgroundImageFix"/>
<feColorMatrix in="SourceAlpha" type="matrix" values="0 0 0 0 0 0 0 0 0 0 0 0 0 0 0 0 0 0 127 0" result="hardAlpha"/>
<feOffset dy="29.0404"/>
<feGaussianBlur stdDeviation="19.3602"/>
<feColorMatrix type="matrix" values="0 0 0 0 0.182433 0 0 0 0 0.230633 0 0 0 0 0.506058 0 0 0 0.20012 0"/>
<feBlend mode="normal" in2="BackgroundImageFix" result="effect1_dropShadow_2_30"/>
<feBlend mode="normal" in="SourceGraphic" in2="effect1_dropShadow_2_30" result="shape"/>
</filter>
<linearGradient id="paint0_linear_2_30" x1="590.556" y1="276.532" x2="146.032" y2="-19.0751" gradientUnits="userSpaceOnUse">
<stop stop-color="#151515"/>
<stop offset="1" stop-color="#3D3D3D"/>
</linearGradient>
<clipPath id="clip0_2_30">
<rect width="635.984" height="451.094" fill="white" transform="translate(0.00793457 0.453125)"/>
</clipPath>
</defs>
</svg>
