<svg width="151" height="144" viewBox="0 0 151 144" fill="none" xmlns="http://www.w3.org/2000/svg">
<g clip-path="url(#clip0_2_172)">
<path d="M150.977 71.8594C150.977 113.087 117.39 143.281 75.9844 143.281C34.5782 143.281 0.991394 109.839 0.991394 68.6111C0.991394 55.6937 4.31965 43.4849 10.122 32.9002C10.1918 32.7039 10.304 32.5255 10.4505 32.3774C7.18796 27.515 5.7538 15.1761 14.0302 6.92403C14.0302 10.368 16.1214 16.2774 18.464 20.6913C20.3582 24.201 22.3737 26.7307 23.8078 26.4051C27.0704 25.6294 38.4779 25.6294 40.1092 26.4051C42.7903 22.9697 49.3154 13.4206 59.683 13.4206C53.8807 19.1986 37.2509 39.3967 66.2067 39.3967H72.7318L53.1579 52.3798C53.1579 52.3798 55.3806 56.6651 53.1579 58.8763C50.6839 56.4023 40.1192 61.5361 40.1192 68.6111C40.1192 75.6862 47.6842 84.8424 62.9456 84.8424C78.2056 84.8424 74.3531 78.3459 82.5095 78.3459C90.6644 78.3459 92.2857 84.8424 92.2857 84.8424C81.0653 84.8424 72.9189 97.8269 59.683 97.8269C66.2067 102.632 70.5106 104.322 79.2469 104.322C100.835 104.322 118.375 86.8594 118.375 65.3628C118.375 56.6637 115.506 48.6744 110.678 42.1879C115.099 45.469 118.778 49.6453 121.476 54.4444C124.173 59.2435 125.829 64.5575 126.334 70.0395C127.545 65.3314 128.159 60.4895 128.161 55.628C128.161 36.0827 119.819 10.238 105.334 0.4375C126.201 6.66263 150.977 26.815 150.977 65.3628V71.8594Z" fill="#FF9800"/>
</g>
<defs>
<clipPath id="clip0_2_172">
<rect width="149.986" height="142.844" fill="white" transform="translate(0.991394 0.4375)"/>
</clipPath>
</defs>
</svg>
