<svg width="148" height="26" viewBox="0 0 148 26" fill="none" xmlns="http://www.w3.org/2000/svg">
<g clip-path="url(#clip0_2_6)">
<path d="M37 6.64275H42.227C42.973 6.64275 43.661 6.79775 44.289 7.10875C44.918 7.41975 45.412 7.84375 45.773 8.37875C46.134 8.91375 46.315 9.49875 46.315 10.1327C46.315 10.8047 46.15 11.3867 45.82 11.8787C45.49 12.3698 45.058 12.7467 44.523 13.0077V13.1578C45.22 13.4058 45.773 13.8007 46.184 14.3427C46.594 14.8837 46.8 15.5338 46.8 16.2928C46.8 17.0278 46.604 17.6777 46.212 18.2437C45.8125 18.8164 45.2636 19.2684 44.625 19.5508C43.96 19.8558 43.222 20.0077 42.413 20.0077H37V6.64275ZM42.04 12.0927C42.588 12.0927 43.026 11.9407 43.356 11.6357C43.686 11.3307 43.851 10.9478 43.851 10.4878C43.851 10.0398 43.692 9.66375 43.375 9.35775C43.057 9.05375 42.637 8.90075 42.115 8.90075H39.52V12.0927H42.04ZM42.32 17.7118C42.93 17.7118 43.406 17.5528 43.748 17.2358C44.09 16.9187 44.261 16.5048 44.261 15.9948C44.261 15.4847 44.087 15.0677 43.739 14.7437C43.39 14.4197 42.892 14.2587 42.245 14.2587H39.52V17.7118H42.32ZM55.247 20.3067C53.94 20.3067 52.755 19.9987 51.691 19.3827C50.6412 18.7812 49.7736 17.907 49.18 16.8528C48.57 15.7828 48.265 14.6067 48.265 13.3247C48.265 12.0437 48.57 10.8678 49.18 9.79675C49.7735 8.74298 50.6407 7.86918 51.69 7.26775C52.756 6.65175 53.94 6.34375 55.248 6.34375C56.554 6.34375 57.74 6.65175 58.804 7.26775C59.8534 7.86946 60.7206 8.74362 61.314 9.79775C61.924 10.8678 62.229 12.0437 62.229 13.3247C62.229 14.6067 61.924 15.7828 61.314 16.8528C60.7206 17.9069 59.8534 18.781 58.804 19.3827C57.74 19.9987 56.554 20.3067 55.248 20.3067H55.247ZM55.247 17.9167C56.0373 17.9248 56.8158 17.7255 57.505 17.3388C58.1841 16.9585 58.7435 16.396 59.12 15.7148C59.512 15.0177 59.708 14.2207 59.708 13.3247C59.708 12.4288 59.512 11.6328 59.12 10.9358C58.7435 10.2545 58.1841 9.69204 57.505 9.31175C56.8159 8.92465 56.0373 8.72501 55.247 8.73275C54.4591 8.72406 53.6829 8.92381 52.997 9.31175C52.3221 9.69427 51.7666 10.2564 51.392 10.9358C51 11.6328 50.804 12.4288 50.804 13.3258C50.804 14.2208 51 15.0177 51.392 15.7148C51.7666 16.3941 52.3221 16.9562 52.997 17.3388C53.683 17.7263 54.4592 17.9257 55.247 17.9167ZM70.6 20.3067C69.293 20.3067 68.108 19.9987 67.044 19.3827C65.9946 18.781 65.1274 17.9069 64.534 16.8528C63.924 15.7828 63.619 14.6067 63.619 13.3247C63.619 12.0437 63.924 10.8678 64.533 9.79675C65.1268 8.74285 65.9944 7.86904 67.044 7.26775C68.108 6.65175 69.294 6.34375 70.6 6.34375C71.907 6.34375 73.092 6.65175 74.156 7.26775C75.2054 7.86946 76.0726 8.74362 76.666 9.79775C77.276 10.8678 77.581 12.0437 77.581 13.3247C77.581 14.6067 77.276 15.7828 76.667 16.8528C76.0734 17.907 75.2058 18.7812 74.156 19.3827C73.092 19.9987 71.906 20.3067 70.6 20.3067ZM70.6 17.9167C71.3906 17.925 72.1695 17.7257 72.859 17.3388C73.5378 16.9583 74.0968 16.3958 74.473 15.7148C74.865 15.0177 75.061 14.2207 75.061 13.3247C75.061 12.4288 74.865 11.6328 74.473 10.9358C74.0968 10.2547 73.5378 9.69219 72.859 9.31175C72.1696 8.92448 71.3907 8.72483 70.6 8.73275C69.8121 8.72406 69.0359 8.92381 68.35 9.31175C67.6751 9.69427 67.1196 10.2564 66.745 10.9358C66.353 11.6328 66.157 12.4288 66.157 13.3258C66.157 14.2208 66.353 15.0177 66.745 15.7148C67.1198 16.3942 67.6758 16.9564 68.351 17.3388C69.0367 17.7262 69.8125 17.9256 70.6 17.9167ZM79.83 6.64375H82.35V12.3737H82.5L87.39 6.64375H90.433V6.79275L85.6 12.3167L90.938 19.8587V20.0077H87.858L83.864 14.3147L82.352 16.0878V20.0077H79.832V6.64275L79.83 6.64375ZM93.779 6.34375H97.027L100.573 15.7338H100.723L104.268 6.34375H107.535V19.7087H105.034V13.1198L105.184 10.8988H105.034L101.636 19.7087H99.676L96.26 10.8988H96.111L96.261 13.1198V19.7097H93.778V6.34375H93.779ZM114.579 6.34375H117.473L122.494 19.7087H119.713L118.593 16.5168H113.478L112.358 19.7087H109.577L114.579 6.34375ZM117.772 14.2028L116.596 10.8427L116.11 9.23675H115.961L115.476 10.8427L114.281 14.2028H117.771H117.772ZM124.553 6.34375H129.425C130.296 6.34375 131.071 6.52375 131.749 6.88475C132.427 7.24575 132.953 7.74675 133.326 8.38775C133.7 9.02775 133.886 9.75375 133.886 10.5627C133.886 11.4207 133.616 12.1828 133.074 12.8488C132.539 13.5102 131.832 14.0109 131.03 14.2957L131.012 14.4257L134.596 19.5597V19.7097H131.702L128.249 14.6877H127.073V19.7087H124.553V6.34375ZM129.406 12.3737C129.979 12.3737 130.446 12.1988 130.806 11.8507C131.167 11.5017 131.348 11.0608 131.348 10.5247C131.348 10.0147 131.176 9.57975 130.834 9.21875C130.492 8.85775 130.028 8.67675 129.444 8.67675H127.073V12.3728H129.406V12.3737ZM136.636 6.34375H139.156V12.0737H139.306L144.196 6.34375H147.239V6.49375L142.404 12.0188L147.744 19.5597V19.7097H144.664L140.668 14.0157L139.156 15.7887V19.7087H136.636V6.34375Z" fill="#242A45"/>
<path d="M12.5 25.3438C19.4036 25.3438 25 19.7473 25 12.8438C25 5.94019 19.4036 0.34375 12.5 0.34375C5.59644 0.34375 0 5.94019 0 12.8438C0 19.7473 5.59644 25.3438 12.5 25.3438Z" fill="#5267DF"/>
<path fill-rule="evenodd" clip-rule="evenodd" d="M9 9.34375V19.3438L12.54 15.9038L16.078 19.3438V9.34375C16.078 8.81332 15.8673 8.30461 15.4922 7.92954C15.1171 7.55446 14.6084 7.34375 14.078 7.34375H11C10.4696 7.34375 9.96086 7.55446 9.58579 7.92954C9.21071 8.30461 9 8.81332 9 9.34375Z" fill="white"/>
</g>
<defs>
<clipPath id="clip0_2_6">
<rect width="148" height="25" fill="white" transform="translate(0 0.34375)"/>
</clipPath>
</defs>
</svg>
